arm26_states
version=1
nRows=17
nColumns=17
inDegrees=yes

# SIMM Motion File Header:
name arm26_states
datacolumns 17
datarows 17
otherdata 1
range 0.060307 0.061505
endheader
time	/jointset/r_shoulder/r_shoulder_elev/value	/jointset/r_shoulder/r_shoulder_elev/speed	/jointset/r_elbow/r_elbow_flex/value	/jointset/r_elbow/r_elbow_flex/speed	/forceset/TRIlong/activation	/forceset/TRIlong/fiber_length	/forceset/TRIlat/activation	/forceset/TRIlat/fiber_length	/forceset/TRImed/activation	/forceset/TRImed/fiber_length	/forceset/BIClong/activation	/forceset/BIClong/fiber_length	/forceset/BICshort/activation	/forceset/BICshort/fiber_length	/forceset/BRA/activation	/forceset/BRA/fiber_length
      0.06030673000000000283	      0.00000000000000000000	      0.00000000000000000000	      0.00000000000000000000	      0.00000000000000000000	      0.05000000000000000278	      0.10000000000000000555	      0.05000000000000000278	      0.10000000000000000555	      0.05000000000000000278	      0.10000000000000000555	      0.05000000000000000278	      0.10000000000000000555	      0.05000000000000000278	      0.10000000000000000555	      0.05000000000000000278	      0.10000000000000000555
      0.06031814590264227005	     -0.00000013587568341211	     -0.02714755558003076330	     -0.00000452236409791673	     -0.71674778417453322010	      0.04999507732751971856	      0.11019060204599048780	      0.04999507732751971856	      0.09999626502603568834	      0.04999507732751971856	      0.09999626502603568834	      0.05012654520601497743	      0.10607595964369324892	      0.05007241911476224133	      0.10962226087388024509	      0.05002789848987004157	      0.09998750569353884177
      0.06033234026293114033	     -0.00000087005986459885	     -0.07808224169069438725	     -0.00001811360469087128	     -1.13129006870363624238	      0.04998895776587442691	      0.11846763305628604801	      0.04998895776587442691	      0.09999162108291605178	      0.04998895776587442691	      0.09999162108291605178	      0.05028348170367605285	      0.11245191151400041329	      0.05016224468086385307	      0.11846849784225313429	      0.05006250707209790318	      0.09997199758248788426
      0.06035411690196357259	     -0.00000349798349134364	     -0.16276443728205780559	     -0.00004462883236871115	     -1.22854443353103648384	      0.04997957190138769407	      0.12600573464766781639	      0.04997957190138769407	      0.09998449660350501589	      0.04997957190138769407	      0.09998449660350501589	      0.05052337448837926348	      0.12033932945975518713	      0.05029958204653074000	      0.12785985726432003151	      0.05011543089620370400	      0.09994826357109230786
      0.06037589354099600486	     -0.00000787995226647080	     -0.23718688748036684255	     -0.00006960343727019678	     -1.03836074638276198989	      0.04997018920413834331	      0.13012911827482165350	      0.04997018920413834331	      0.09997737229851361151	      0.04997018920413834331	      0.09997737229851361151	      0.05076221271164965687	      0.12649640007382703666	      0.05043635180061705608	      0.13404098944262091142	      0.05016814746193826863	      0.09992459954819220280
      0.06039767018002843713	     -0.00001370883135025060	     -0.29539233829195782333	     -0.00008925213853421332	     -0.76114766563296021307	      0.04996080967291386538	      0.13242047279596286247	      0.04996080967291386538	      0.09997024816788298296	      0.04996080967291386538	      0.09997024816788298296	      0.05100000231176885640	      0.13132905743078904237	      0.05057255669104731427	      0.13815870020967008225	      0.05022065763760120288	      0.09990100504188467734
      0.06042619607687629152	     -0.00002294959173667712	     -0.34854150785305237914	     -0.00010577988746344577	     -0.40567344084078843514	      0.04994852792114150286	      0.13396761876983612205	      0.04994852792114150286	      0.09996091631126494126	      0.04994852792114150286	      0.09996091631126494126	      0.05130991364741690347	      0.13611082997154974605	      0.05075012567404949687	      0.14155644256303512307	      0.05028913153934869151	      0.09987020225844535359
      0.06045472197372414591	     -0.00003340320449521862	     -0.38161949664893057843	     -0.00011304661961667917	     -0.11648538253272879006	      0.04993625159721067769	      0.13469030230843814788	      0.04993625159721067769	      0.09995158475360281514	      0.04993625159721067769	      0.09995158475360281514	      0.05161804886493424199	      0.13955208299947183259	      0.05092673617710306855	      0.14355318781477896528	      0.05035725470682515109	      0.09983951692110444587
      0.06049336286859468420	     -0.00004866530399036220	     -0.40503691306630412727	     -0.00011193860628672053	      0.15080412707967030816	      0.04991963086267490329	      0.13513332161783730978	      0.04991963086267490329	      0.09993894479534939923	      0.04991963086267490329	      0.09993894479534939923	      0.05203263644022559226	      0.14268339973295965373	      0.05116445323861573691	      0.14500867022782842897	      0.05044897775681408264	      0.09979813634309551984
      0.06053200376346522249	     -0.00006452146963329593	     -0.41416385271988426231	     -0.00010289433773398472	      0.30267313764048398017	      0.04990302007601065543	      0.13536566514952474982	      0.04990302007601065543	      0.09992630538508381899	      0.04990302007601065543	      0.09992630538508381899	      0.05244402074987108975	      0.14462328413326216991	      0.05140043755329511826	      0.14571370070217720682	      0.05054006549928314468	      0.09975696688504746834
      0.06057064465833576078	     -0.00008061231125111508	     -0.41836872105709438374	     -0.00008935669265791380	      0.39074683892458628165	      0.04988641923046476662	      0.13550782657454060742	      0.04988641923046476662	      0.09991366652247810065	      0.04988641923046476662	      0.09991366652247810065	      0.05285223329287526417	      0.14580916356320183791	      0.05163470385315217792	      0.14608444494667383040	      0.05063052263294487432	      0.09971600608494247953
      0.06064230278991959017	     -0.00011082084466014590	     -0.42468549144074074775	     -0.00005778517091320394	      0.47946589735276845534	      0.04985565985598908179	      0.13565749669924526133	      0.04985565985598908179	      0.09989022966070047749	      0.04985565985598908179	      0.09989022966070047749	      0.05360095909554160598	      0.14691153015681437943	      0.05206464446714310218	      0.14644536731499049886	      0.05079661884592211185	      0.09964058984397869412
      0.06074335984177318265	     -0.00015417355779362663	     -0.43316266795055896610	     -0.00000580913534441987	      0.54290324936505574005	      0.04981233892694741233	      0.13575483966375093137	      0.04981233892694741233	      0.09985718063816427514	      0.04981233892694741233	      0.09985718063816427514	      0.05463887938121872456	      0.14747466839139317107	      0.05266119525150173009	      0.14667337103985306213	      0.05102725677786321828	      0.09953540936791809013
      0.06090389268253276756	     -0.00022469298407347239	     -0.44518971646301130907	      0.00008675050318821085	      0.60655443974628742154	      0.04974366126893486201	      0.13581066388874862838	      0.04974366126893486201	      0.09980468872520549539	      0.04974366126893486201	      0.09980468872520549539	      0.05624557671538933656	      0.14774550170564756946	      0.05358587120439889384	      0.14680201285103330888	      0.05138514931949880737	      0.09937106609625102893
      0.06114093185394950392	     -0.00033222949708148401	     -0.46201824635374399985	      0.00023997629387880593	      0.68599175637039311315	      0.04964256493027643241	      0.13584477884179568807	      0.04964256493027643241	      0.09972719752773902269	      0.04964256493027643241	      0.09972719752773902269	      0.05852736533620343795	      0.14781765697077384192	      0.05490150596115255660	      0.14684879561073349574	      0.05189515792243542397	      0.09913426240313016891
      0.06145787796550877813	     -0.00048223868221759677	     -0.48460612928450547132	      0.00047466346190000816	      0.79589835028525490745	      0.04950796660406816402	      0.13587394923157886106	      0.04950796660406816402	      0.09962361559491163254	      0.04950796660406816402	      0.09962361559491163254	      0.06141900423508447199	      0.14784266372629026320	      0.05657261221500560489	      0.14687594360895006584	      0.05254423767396407957	      0.09882785140617947328
      0.06150487000000000315	     -0.00050509046637904381	     -0.48797610837484461932	      0.00051245879888127768	      0.81270834466386732142	      0.04948806647893062849	      0.13587752960209245612	      0.04948806647893062849	      0.09960826110947797185	      0.04948806647893062849	      0.09960826110947797185	      0.06183294356886863408	      0.14784509954048322133	      0.05681216269144784975	      0.14687891447032799808	      0.05263739264940595075	      0.09878336381835001179
